<svg width="116" height="115" viewBox="0 0 116 115" fill="none" xmlns="http://www.w3.org/2000/svg">
<circle cx="58.0538" cy="57.5809" r="57.2237" fill="white"/>
<path d="M58.1524 56.261C58.9804 56.261 59.8804 56.297 60.7804 56.297H61.3204C61.5004 56.297 61.6804 56.333 61.8244 56.369C61.9324 56.441 62.0044 56.513 62.0044 56.621C62.0044 56.693 61.9684 56.801 61.8964 56.873C61.7884 56.981 61.6444 57.017 61.5364 57.053C61.1044 57.125 60.6724 57.125 60.2404 57.161H59.1964L55.4164 57.269C55.0564 57.269 55.0204 57.269 54.9124 57.629C53.7244 61.229 52.5724 64.829 51.4204 68.429C50.6644 70.805 50.1244 73.217 49.5484 75.593C48.9004 78.293 48.2524 80.957 47.7124 83.657C47.6404 83.981 47.4964 84.233 47.1364 84.305H46.9924C46.8844 84.305 46.7764 84.269 46.7044 84.125C46.5604 83.873 46.4884 83.621 46.4884 83.333V83.189C46.5604 82.289 46.7044 81.425 46.8484 80.561C47.5324 76.781 48.3604 73.073 49.1524 69.365C49.5844 67.349 49.9444 65.333 50.4124 63.317C50.8444 61.445 51.3484 59.609 51.8884 57.773C51.8884 57.701 51.9244 57.629 51.9244 57.557V57.449C51.9244 57.377 51.8884 57.341 51.7444 57.341C50.4844 57.449 49.2244 57.521 47.9644 57.629C47.4964 57.665 46.9924 57.665 46.4884 57.701C45.7684 57.737 45.0124 57.773 44.2924 57.773C44.0044 57.773 43.8244 57.881 43.6804 58.097C42.7804 59.393 41.8444 60.689 40.9444 61.985L36.7324 68.033C36.6244 68.177 36.5524 68.357 36.5164 68.537C36.0124 70.985 35.0404 73.181 33.7084 75.269C32.8084 76.709 31.7284 78.041 30.5404 79.265C30.3244 79.481 30.0364 79.697 29.7844 79.877C29.4964 80.057 29.2084 80.093 28.8844 80.129C28.5604 80.129 28.3804 79.985 28.3084 79.661C28.2724 79.445 28.2364 79.265 28.2364 79.049C28.2364 78.869 28.2724 78.653 28.3084 78.473C28.4524 77.753 28.7764 77.033 29.1004 76.349C30.0004 74.477 31.0444 72.677 32.1604 70.913C33.1324 69.329 34.1404 67.781 35.1844 66.233C35.2924 66.053 35.3284 65.909 35.3284 65.729C35.3284 65.621 35.3284 65.513 35.2924 65.405C35.0764 64.577 34.6084 63.929 34.0324 63.317C33.4924 62.705 32.7724 62.237 32.0524 61.877C30.9004 61.265 29.7124 60.725 28.5244 60.185C28.3804 60.113 28.2724 60.041 28.1284 59.969C27.9484 59.861 27.8404 59.681 27.8044 59.465C27.7684 59.357 27.7684 59.249 27.7684 59.177C27.7684 58.853 27.9484 58.673 28.3804 58.493C29.6044 58.097 30.8284 57.845 32.0524 57.629C33.4924 57.377 34.9684 57.161 36.4084 57.017C37.6684 56.909 38.9284 56.801 40.1884 56.765C40.6924 56.729 41.1604 56.693 41.6644 56.693C41.9164 56.693 42.0244 56.549 42.1684 56.369L44.7604 52.913C47.0284 49.853 49.3324 46.793 51.7084 43.805C52.9684 42.221 54.3004 40.673 55.6324 39.125C56.4964 38.189 57.3244 37.253 58.1524 36.281C58.5844 35.777 59.1244 35.417 59.7364 35.201C59.8804 35.129 59.9884 35.129 60.0964 35.129C60.3124 35.129 60.4924 35.273 60.6364 35.561C60.8164 35.921 60.9244 36.281 60.9244 36.641C60.9244 36.785 60.8884 36.893 60.8884 37.037C60.6724 38.045 60.3844 39.017 60.0964 40.025C58.8004 44.849 57.3604 49.637 55.8844 54.389C55.7764 54.857 55.6324 55.289 55.4884 55.757C55.4524 55.937 55.4164 56.045 55.4164 56.117C55.4164 56.261 55.5244 56.261 55.8124 56.261H58.1524ZM58.2964 38.729C58.2604 38.693 58.2244 38.693 58.1884 38.657C53.7604 44.597 49.2244 50.465 44.8324 56.513C44.9764 56.513 45.0844 56.549 45.1564 56.549C45.2644 56.549 45.3724 56.513 45.4444 56.513C46.3084 56.441 47.2084 56.441 48.1084 56.405C49.3684 56.333 50.6284 56.297 51.9244 56.297H52.1044C52.2844 56.297 52.3564 56.225 52.4284 55.937C52.6444 55.181 52.8964 54.461 53.1124 53.705C54.5164 49.385 56.0284 45.101 57.5764 40.817C57.7924 40.133 58.0444 39.413 58.2964 38.729ZM36.3364 64.469C37.8484 62.201 39.4324 60.077 40.9804 57.953H39.5044C37.7764 58.061 36.0844 58.169 34.3924 58.385C33.0244 58.565 31.6204 58.781 30.2524 59.105C30.1444 59.141 30.0004 59.141 29.8564 59.285C30.1444 59.393 30.3964 59.501 30.6484 59.609C31.5124 60.077 32.4124 60.509 33.2764 60.977C34.2844 61.517 35.0764 62.273 35.6884 63.245C35.9404 63.641 36.1204 64.001 36.3364 64.469ZM34.5004 71.273C34.4644 71.345 34.3924 71.417 34.3564 71.489C33.6724 72.461 32.9884 73.433 32.3404 74.405C31.5124 75.557 30.7204 76.709 30.0004 77.969C29.9284 78.077 29.8564 78.185 29.8204 78.401C31.9804 76.349 33.4564 73.973 34.5004 71.273ZM54.0124 28.397C53.9404 28.325 53.9044 28.217 53.9044 28.145C53.8684 27.857 53.8684 27.569 53.8684 27.317V26.957C53.9404 26.633 54.0484 26.489 54.3724 26.417C54.6964 26.345 55.0204 26.345 55.3444 26.345C55.5964 26.345 55.8484 26.381 56.0644 26.561C58.1524 27.821 58.5124 28.001 58.8004 28.253C59.4484 28.793 60.1684 29.189 60.8524 29.621C61.4644 29.981 62.0764 30.341 62.6164 30.809C62.8684 31.025 62.9764 31.277 62.9764 31.565V31.709C62.9404 32.069 62.7964 32.213 62.4364 32.213H62.2924C62.1844 32.213 62.0764 32.177 61.9684 32.105C61.5724 31.853 61.1764 31.673 60.7804 31.493C59.6284 30.989 58.5124 30.449 55.5244 29.117C55.1284 29.045 54.7684 28.901 54.4444 28.721C54.2644 28.649 54.1204 28.541 54.0124 28.397ZM60.9863 66.701C61.0943 66.701 61.2023 66.629 61.3103 66.557C61.8503 66.341 62.3543 66.053 62.8943 65.873C64.0463 65.441 65.1263 64.901 66.2423 64.397C66.9263 64.073 67.5743 63.785 68.2583 63.533C68.4383 63.461 68.6543 63.425 68.8343 63.425C68.9423 63.425 69.0503 63.461 69.0863 63.605V63.677C69.0863 63.749 69.0503 63.821 69.0143 63.857C68.9063 63.929 68.7983 64.001 68.6543 64.037C65.8823 65.333 63.1823 66.773 60.4463 68.177C60.1943 68.321 60.0503 68.501 59.9423 68.717C59.2583 70.157 58.5383 71.561 57.7103 72.893C56.3063 75.233 54.5423 77.285 52.3823 79.013C51.7703 79.517 51.0863 79.949 50.3663 80.309C49.6823 80.705 48.9623 80.885 48.2063 80.921H48.0263C47.7743 80.921 47.5583 80.849 47.3063 80.741C46.9823 80.597 46.7663 80.381 46.6223 80.021C46.5143 79.697 46.4423 79.373 46.4423 79.049C46.4423 78.617 46.5503 78.185 46.7303 77.789C47.0543 76.997 47.4863 76.313 48.0263 75.665C49.0703 74.333 50.3663 73.289 51.6983 72.281C53.5343 70.949 55.4783 69.725 57.4583 68.609C57.7103 68.501 57.8543 68.285 57.9623 68.033C58.8623 66.233 59.5103 64.325 60.1583 62.453C60.5183 61.337 60.9503 60.257 61.2023 59.105C61.3103 58.709 61.5983 58.493 61.9583 58.493H62.0663C62.2823 58.529 62.4263 58.637 62.4983 58.817C62.6063 59.105 62.6423 59.357 62.6423 59.645V59.933C62.4263 62.129 61.7783 64.217 60.9863 66.269C60.9503 66.377 60.9143 66.521 60.8783 66.629C60.8783 66.629 60.8783 66.665 60.9143 66.701H60.9863ZM56.5223 70.445C56.2343 70.661 55.9823 70.841 55.6943 70.985C53.6423 72.317 51.6983 73.793 49.9703 75.521C49.2503 76.241 48.6023 76.997 48.0983 77.897C47.9183 78.257 47.7743 78.581 47.7383 78.977V79.121C47.7383 79.409 47.8823 79.589 48.1343 79.589C48.2063 79.589 48.2783 79.589 48.3503 79.553C48.4943 79.553 48.6023 79.481 48.7103 79.445C49.1423 79.193 49.6103 78.977 50.0063 78.689C51.5543 77.573 52.9583 76.241 54.0743 74.657C54.9383 73.397 55.6943 72.029 56.4863 70.697C56.5223 70.661 56.5583 70.625 56.5583 70.553C56.5583 70.517 56.5583 70.481 56.5223 70.445ZM63.7223 52.697C63.8303 52.733 64.0823 52.769 64.2983 52.841C64.5503 52.913 64.6583 53.057 64.6583 53.309V53.489C64.6583 54.065 64.4783 54.569 63.9383 54.893C63.6143 55.109 63.3983 55.433 63.1823 55.793C63.0383 56.009 62.8583 56.117 62.6423 56.117C62.5343 56.117 62.4623 56.117 62.3543 56.081C62.1023 55.973 61.9943 55.793 61.9943 55.433C62.0303 55.109 62.1023 54.749 62.2463 54.461C62.3903 54.101 62.5343 53.741 62.6423 53.345C62.7863 52.841 62.9663 52.697 63.5063 52.697H63.7223ZM78.6029 49.925C80.2589 49.925 81.6749 50.285 82.8509 51.005C84.0509 51.725 84.9629 52.745 85.5869 54.065C86.2349 55.361 86.5589 56.885 86.5589 58.637V60.545H73.3469C73.3949 62.729 73.9469 64.397 75.0029 65.549C76.0829 66.677 77.5829 67.241 79.5029 67.241C80.7269 67.241 81.8069 67.133 82.7429 66.917C83.7029 66.677 84.6869 66.341 85.6949 65.909V68.681C84.7109 69.113 83.7389 69.425 82.7789 69.617C81.8189 69.833 80.6789 69.941 79.3589 69.941C77.5349 69.941 75.9149 69.569 74.4989 68.825C73.1069 68.081 72.0149 66.977 71.2229 65.513C70.4549 64.025 70.0709 62.213 70.0709 60.077C70.0709 57.965 70.4189 56.153 71.1149 54.641C71.8349 53.129 72.8309 51.965 74.1029 51.149C75.3989 50.333 76.8989 49.925 78.6029 49.925ZM78.5669 52.517C77.0549 52.517 75.8549 53.009 74.9669 53.993C74.1029 54.953 73.5869 56.297 73.4189 58.025H83.2469C83.2469 56.921 83.0789 55.961 82.7429 55.145C82.4069 54.329 81.8909 53.693 81.1949 53.237C80.5229 52.757 79.6469 52.517 78.5669 52.517ZM78.8909 75.917C78.3869 75.917 77.9429 75.749 77.5589 75.413C77.1989 75.077 77.0189 74.573 77.0189 73.901C77.0189 73.205 77.1989 72.689 77.5589 72.353C77.9429 72.041 78.3869 71.885 78.8909 71.885C79.3949 71.885 79.8269 72.041 80.1869 72.353C80.5709 72.689 80.7629 73.205 80.7629 73.901C80.7629 74.573 80.5709 75.077 80.1869 75.413C79.8269 75.749 79.3949 75.917 78.8909 75.917ZM97.3752 46.649C97.2672 46.793 97.1232 46.901 96.9792 46.973C96.6192 47.153 96.2592 47.297 95.8992 47.369C92.9112 48.701 91.7952 49.241 90.6432 49.745C90.2472 49.925 89.8152 50.105 89.4552 50.357C89.3472 50.429 89.2032 50.465 89.0952 50.465H88.9872C88.6272 50.465 88.4832 50.321 88.4472 49.961V49.817C88.4472 49.529 88.5192 49.277 88.8072 49.061C89.3472 48.593 89.9592 48.233 90.5352 47.873C91.2552 47.441 91.9752 47.045 92.6232 46.505C92.9112 46.253 93.2712 46.073 95.3592 44.813C95.5752 44.633 95.8272 44.597 96.0792 44.597C96.4032 44.597 96.7272 44.597 97.0152 44.669C97.3392 44.741 97.4832 44.885 97.5192 45.209C97.5552 45.389 97.5552 45.533 97.5552 45.713C97.5552 45.929 97.5552 46.181 97.5192 46.397C97.4832 46.469 97.4472 46.577 97.3752 46.649Z" fill="black"/>
</svg>
