<svg width="78" height="76" viewBox="0 0 78 76" fill="none" xmlns="http://www.w3.org/2000/svg">
<g clip-path="url(#clip0_243_42)">
<path d="M10.1224 37.1117C9.4143 37.1117 8.84788 36.9924 8.42304 36.7539C8.23423 36.7062 8.13981 36.6106 8.13981 36.4676C8.13981 36.3722 8.18702 36.3006 8.28143 36.253C8.42303 36.2051 8.58825 36.229 8.77706 36.3244C9.06028 36.4199 9.2727 36.4676 9.4143 36.4676C10.028 36.4676 10.6652 36.229 11.326 35.7519C11.9869 35.2749 12.5533 34.6308 13.0254 33.8197C13.5446 33.0087 13.8042 32.1021 13.8042 31.1003C13.8042 30.5278 13.6862 29.8837 13.4502 29.168C13.2142 28.5001 12.8838 27.856 12.4589 27.2358C12.0341 26.5678 11.6801 25.9237 11.3968 25.3035C11.0192 24.4924 10.736 23.753 10.5472 23.0849C10.4056 22.4171 10.3348 21.773 10.3348 21.1528C10.3348 19.626 10.8068 18.4333 11.7509 17.5745C12.6949 16.668 13.8986 15.9762 15.3619 15.4991C16.8724 14.9743 18.4537 14.5926 20.1058 14.354C21.758 14.1155 23.2685 13.9008 24.6374 13.71C25.8174 13.5668 27.2335 13.376 28.8856 13.1374C30.5849 12.8512 32.355 12.5649 34.196 12.2787C36.0369 11.9447 37.7835 11.5869 39.4357 11.2052C41.135 10.8235 42.5747 10.4418 43.7547 10.0602C44.982 9.67848 45.7608 9.2968 46.0912 8.91512C46.1857 8.81969 46.28 8.77198 46.3745 8.77198C46.5161 8.77198 46.587 8.84355 46.587 8.98667C46.6341 9.12982 46.587 9.27294 46.4453 9.41607C45.9261 9.98858 44.8403 10.5611 43.1882 11.1336C41.5362 11.7061 39.5771 12.2548 37.3115 12.7796C35.0929 13.3044 32.7799 13.8054 30.3726 14.2825C27.9651 14.7596 25.6995 15.2128 23.5753 15.6422C21.4512 16.0716 19.7283 16.4771 18.4065 16.8588C14.111 18.0516 11.9633 20.0315 11.9633 22.7987C11.9633 23.896 12.2701 24.9696 12.8838 26.0192C13.4974 27.021 14.0874 28.023 14.6539 29.0249C15.2675 30.0267 15.5743 31.0526 15.5743 32.1021C15.5743 33.5812 14.9607 34.7978 13.7334 35.7519C12.5533 36.6585 11.3496 37.1117 10.1224 37.1117ZM9.2727 50.0649C7.29016 50.0649 5.63805 49.6117 4.31636 48.7051C2.99466 47.751 2.00339 46.5344 1.34255 45.0555C0.681704 43.5764 0.35128 41.9781 0.35128 40.2605C0.35128 39.1155 0.49289 38.0181 0.77611 36.9685C0.917719 36.0144 1.24814 35.5372 1.76738 35.5372C1.90899 35.5372 1.97979 35.6326 1.97979 35.8235C1.97979 36.0144 1.90899 36.2767 1.76738 36.6106C1.67297 36.8971 1.64937 37.0878 1.69657 37.1833C1.83818 40.6183 2.64064 43.1471 4.10394 44.7692C5.56724 46.3435 7.36096 47.1308 9.48511 47.1308C12.5061 47.1308 15.6923 45.771 19.0437 43.0515C20.2711 42.0497 21.4984 40.8569 22.7256 39.4733C24.0002 38.0421 25.2511 36.5153 26.4783 34.8931C25.9119 34.9887 25.3454 35.1078 24.779 35.251C24.2598 35.3942 23.7406 35.5372 23.2213 35.6805C22.5605 35.8712 21.9468 36.0381 21.3804 36.1814C20.8139 36.3244 20.3183 36.4199 19.8934 36.4676C19.7046 36.5153 19.5158 36.5392 19.327 36.5392C19.1382 36.5392 18.9729 36.5392 18.8313 36.5392C18.3121 36.5392 18.029 36.4437 17.9817 36.253C17.9345 36.0621 17.9817 35.8712 18.1233 35.6805C18.4065 35.2987 18.8078 34.9408 19.327 34.6069C19.8934 34.2253 20.4126 34.0105 20.8847 33.9628C21.876 33.8197 22.9852 33.6528 24.2125 33.4619C25.4399 33.2233 26.7142 33.0087 28.036 32.8178C29.8297 30.3369 31.5762 27.8321 33.2755 25.3035C34.9748 22.7749 36.5326 20.5324 37.9487 18.5764C38.4679 17.9084 38.9399 17.2882 39.3649 16.7157C39.8367 16.1432 40.3088 15.5707 40.7809 14.9981C41.3946 14.2348 42.2442 13.7577 43.3298 13.5668C43.5659 13.2806 44.0378 12.8035 44.746 12.1355C45.454 11.4199 46.0912 10.9428 46.6578 10.7042C46.8466 10.6088 46.9645 10.5611 47.0117 10.5611C47.2478 10.5611 47.3658 10.6804 47.3658 10.9189C47.4129 11.1098 47.3893 11.2529 47.295 11.3483C46.8701 11.6823 46.4217 12.1832 45.9496 12.8512C45.4775 13.4714 45.0999 14.0916 44.8168 14.7119C43.5423 17.5268 42.3622 20.4131 41.2766 23.3712C40.1908 26.3292 39.1761 29.3112 38.2319 32.3169C39.2704 32.3646 40.0492 32.6508 40.5684 33.1756C41.135 33.6528 41.4181 34.1537 41.4181 34.6785C41.4181 35.3464 41.2058 35.7281 40.7809 35.8235C40.4033 35.8712 40.3088 35.7042 40.4976 35.3226C40.5921 35.1794 40.6392 34.9887 40.6392 34.7501C40.6392 34.3683 40.3796 34.0583 39.8604 33.8197C39.3412 33.5812 38.6803 33.438 37.8778 33.3903C37.5474 34.4399 37.1698 35.7758 36.7451 37.398C36.3673 39.0201 36.0606 40.5706 35.8246 42.0497C35.7773 42.479 35.7301 42.8846 35.683 43.2662C35.683 43.6003 35.683 43.9103 35.683 44.1965C35.683 45.2939 35.8481 46.0812 36.1785 46.5583C36.509 47.0353 36.9339 47.2739 37.4531 47.2739C38.114 47.2739 38.8456 47.0115 39.6479 46.4867C40.4976 45.9142 41.3238 45.2462 42.1263 44.4828C42.9286 43.7196 43.5894 43.0039 44.1086 42.336C44.2031 42.2405 44.4627 41.9065 44.8875 41.334C45.3124 40.7615 45.7845 40.1651 46.3037 39.5449C46.8229 38.8769 47.2241 38.3521 47.5074 37.9705C47.5546 37.8751 47.6726 37.8751 47.8613 37.9705C48.0975 38.0181 48.1681 38.0897 48.0738 38.1851C46.9409 39.8072 45.7373 41.4056 44.4627 42.9799C43.849 43.6956 43.0231 44.6021 41.9846 45.6994C40.9933 46.7967 39.9076 47.7749 38.7275 48.6337C37.5474 49.4447 36.391 49.8503 35.2581 49.8503C35.1164 49.8503 34.975 49.8264 34.8333 49.7787C34.6917 49.7787 34.5501 49.7547 34.4084 49.7071C33.6533 49.5164 33.1104 49.0392 32.7799 48.2758C32.4495 47.5124 32.2842 46.606 32.2842 45.5564C32.2842 45.0315 32.3315 44.459 32.4258 43.8389C32.5203 43.2185 32.6383 42.5983 32.7799 41.9781C33.1104 40.6899 33.5351 39.3064 34.0545 37.8272C34.5737 36.3006 35.1164 34.8215 35.683 33.3903C35.5413 33.3903 35.3997 33.4142 35.2581 33.4619C35.1638 33.4619 35.0456 33.4619 34.9041 33.4619C33.7241 33.5572 32.544 33.7242 31.3639 33.9628C30.1837 34.1537 29.2397 34.3206 28.5317 34.4639C26.7379 37.0878 24.8262 39.5926 22.7964 41.9781C20.7667 44.3637 18.619 46.3197 16.3532 47.8464C14.1346 49.3255 11.7745 50.0649 9.2727 50.0649ZM29.8061 32.5315C30.9862 32.4362 32.0954 32.3646 33.134 32.3169C34.2196 32.2692 35.2346 32.2453 36.1785 32.2453C36.5561 31.3865 36.8865 30.5992 37.1698 29.8837C37.5002 29.1203 37.7599 28.4522 37.9487 27.8797C38.7511 25.7806 39.4828 23.8244 40.1437 22.0115C40.8045 20.1985 41.135 19.1251 41.135 18.791C41.135 18.648 40.8517 18.624 40.2853 18.7196C39.7188 18.8149 39.0344 19.3397 38.2319 20.2939C36.9574 21.8206 35.6122 23.6814 34.196 25.876C32.7799 28.023 31.3166 30.2415 29.8061 32.5315ZM50.2686 6.19566C50.2686 6.33878 50.009 6.31492 49.4898 6.12408C49.0179 5.88553 48.4042 5.57542 47.6489 5.19374C46.9409 4.81207 46.2092 4.47808 45.454 4.19183C44.746 3.85787 44.156 3.61932 43.6839 3.47619C43.259 3.28535 42.7869 3.0468 42.2677 2.76053C41.5125 2.37885 41.135 2.02103 41.135 1.68706V1.54393C41.135 0.923702 41.4181 0.565878 41.9846 0.470459C42.1263 0.470459 42.3385 0.518168 42.6218 0.613587L45.6665 2.68898C47.3658 3.7863 48.5459 4.59737 49.2067 5.12217C49.8676 5.59928 50.2215 5.9571 50.2686 6.19566Z" fill="black"/>
<path d="M47.7778 28.8101C47.4002 28.8101 47.2114 28.5239 47.2114 27.9514C47.2114 27.2835 47.5653 26.7348 48.2735 26.3055C48.9815 25.8284 49.7604 25.4466 50.61 25.1603C51.5068 24.8741 52.1677 24.7071 52.5926 24.6594H52.9465C53.2298 24.6594 53.3714 24.7071 53.3714 24.8026C53.3714 24.9934 53.041 25.3512 52.3801 25.876L50.6808 27.2359C50.3976 27.4266 50.1145 27.6175 49.8312 27.8084C49.5479 27.9991 49.2883 28.166 49.0524 28.3092C48.4858 28.6432 48.0611 28.8101 47.7778 28.8101ZM27.5277 75.4705C24.6483 75.4705 22.2882 74.9457 20.4472 73.896C18.6063 72.8464 17.6858 71.3675 17.6858 69.4591C17.6858 68.2185 18.1342 66.8112 19.031 65.2367C19.9278 63.71 21.3677 62.0162 23.3501 60.1557C25.4271 58.1994 27.9761 56.5296 30.9971 55.146C34.0181 53.7625 37.1808 52.6651 40.4849 51.8541C43.7892 51.0907 46.9282 50.6614 49.902 50.5659C49.8549 48.5144 49.7132 46.5584 49.4771 44.6976C49.2883 42.7892 48.9579 40.4753 48.4858 37.7559C47.4474 39.1394 46.2673 40.6423 44.9456 42.2644C43.6712 43.8866 42.5619 45.1032 41.6178 45.9142H41.547C41.4998 45.9142 41.4527 45.8426 41.4053 45.6994C41.3582 45.5564 41.3819 45.4371 41.4762 45.3417C42.7036 44.1012 43.8837 42.7176 45.0164 41.1909C45.7244 40.2844 46.3146 39.4017 46.7865 38.543C47.3057 37.6842 47.5654 36.6585 47.5654 35.4657C47.5654 35.2271 47.5419 35.0125 47.4945 34.8216C47.4945 34.5832 47.471 34.3446 47.4239 34.106V33.9628C47.4239 33.7242 47.471 33.5335 47.5654 33.3903C47.707 33.2473 47.8486 33.128 47.9903 33.0325C48.1319 32.9371 48.297 32.7225 48.4858 32.3884C48.6748 32.0544 48.7454 31.7205 48.6983 31.3866V31.2434C48.6983 31.0526 48.7454 30.9571 48.8399 30.9571C49.1232 30.9571 49.312 31.2673 49.4063 31.8875C49.4063 31.8875 49.5244 32.46 49.7604 33.605C49.9963 34.7501 50.2796 36.253 50.61 38.1137C50.9405 39.9266 51.2472 41.9305 51.5305 44.1251C51.8138 46.3198 52.0026 48.4667 52.0969 50.5659C53.3243 50.5659 54.5278 50.7328 55.7079 51.0669C56.888 51.4009 57.6433 52.1403 57.9738 53.2853C58.0209 53.3809 58.0446 53.5001 58.0446 53.6432C58.0446 53.9771 57.9266 54.168 57.6905 54.2157C57.5017 54.2634 57.4072 54.1919 57.4072 54.001C57.5017 53.3809 57.2658 52.8798 56.6992 52.4982C56.1328 52.1642 55.4248 51.9017 54.5752 51.711C53.7255 51.5678 52.923 51.4725 52.1677 51.4248C52.3565 56.291 51.4597 60.4657 49.4771 63.9485C47.5419 67.4314 44.8041 70.1269 41.2637 72.0353C37.7235 73.9916 33.664 75.1126 29.0853 75.3989C28.8494 75.3989 28.5898 75.3989 28.3065 75.3989C28.0232 75.4466 27.7636 75.4705 27.5277 75.4705ZM26.5364 74.6118C27.3389 74.6118 28.1885 74.5401 29.0853 74.3971C31.9176 73.9676 34.5845 73.085 37.0863 71.7491C39.5409 70.4132 41.7123 68.6957 43.6004 66.5964C45.5356 64.545 47.0461 62.231 48.1319 59.6546C49.2648 57.0784 49.8549 54.335 49.902 51.4248C47.1643 51.5678 44.3555 51.9973 41.4762 52.7128C38.5968 53.4285 35.8354 54.4305 33.192 55.7185C30.5487 57.0067 28.212 58.605 26.1823 60.5134C24.0109 62.565 22.4533 64.378 21.5091 65.9523C20.518 67.5744 20.0223 69.0059 20.0223 70.2462C20.0223 71.6298 20.6123 72.7034 21.7924 73.4667C22.9725 74.23 24.5538 74.6118 26.5364 74.6118Z" fill="black"/>
<path d="M61.9299 49.9217C60.0418 49.9217 58.6966 49.4924 57.8941 48.6337C57.1388 47.7749 56.7612 46.7013 56.7612 45.4131C56.7612 44.6499 56.8792 43.8626 57.1153 43.0515C57.3512 42.2404 57.658 41.4294 58.0358 40.6183C57.7053 40.4276 57.54 40.189 57.54 39.9028C57.54 39.4733 58.0358 39.0917 59.0271 38.7576C59.4518 38.1374 59.971 37.3026 60.5847 36.2529C61.2456 35.1556 61.9536 34.0583 62.7087 32.961C63.5112 31.8637 64.3374 30.9333 65.1871 30.1699C66.0367 29.4065 66.8627 29.0249 67.6652 29.0249C68.326 29.0249 68.7508 29.2872 68.9397 29.812C69.1285 29.7644 69.3881 29.7404 69.7186 29.7404C71.0874 29.7404 71.7718 30.4562 71.7718 31.8874C71.7718 32.9847 71.3942 34.0344 70.639 35.0363C69.8837 35.9904 68.9869 36.5869 67.9485 36.8254L68.0193 37.1833C68.0193 37.1833 68.2552 37.1594 68.7273 37.1117C69.1994 37.0162 69.6004 36.9447 69.9309 36.897C70.7334 36.8492 71.6067 36.8492 72.5508 36.897C73.4948 36.9447 74.1085 37.1594 74.3916 37.541C74.486 37.6365 74.4624 37.7081 74.3209 37.7558C74.2264 37.8035 74.1319 37.8035 74.0376 37.7558C73.6601 37.5649 73.0464 37.4695 72.1967 37.4695C71.0638 37.4695 69.7186 37.6126 68.1607 37.8988C66.6502 38.1851 65.2579 38.5429 63.9833 38.9724C62.7087 39.354 61.8356 39.7119 61.3635 40.0458C60.9386 40.7138 60.5139 41.5726 60.089 42.6222C59.6642 43.624 59.4518 44.602 59.4518 45.5563C59.4518 46.4151 59.6877 47.1545 60.1598 47.7749C60.679 48.3474 61.5995 48.6337 62.9212 48.6337C64.3374 48.6337 65.6355 48.2758 66.8155 47.5601C68.0428 46.8445 69.1757 45.9619 70.2141 44.9122C71.2526 43.8149 72.173 42.7892 72.9755 41.8349C73.07 41.7395 73.4004 41.3578 73.9668 40.6899C74.5332 40.022 75.1232 39.3063 75.7369 38.5429C76.3978 37.7319 76.8699 37.1117 77.153 36.6822C77.153 36.6822 77.2003 36.7299 77.2946 36.8254C77.3891 37.0162 77.3654 37.207 77.2238 37.3979C76.6103 38.1613 75.9965 38.9724 75.3828 39.8312C74.7693 40.6899 74.1319 41.5249 73.4711 42.336C72.5271 43.5287 71.465 44.7213 70.285 45.9142C69.152 47.0592 67.9011 48.0133 66.5323 48.7767C65.1634 49.5401 63.6292 49.9217 61.9299 49.9217ZM62.0716 38.6145C62.9685 38.2806 63.6765 38.042 64.1958 37.8988C64.715 37.7558 65.1871 37.5888 65.6118 37.3979C66.0367 37.1594 66.4379 36.897 66.8155 36.6106C67.2403 36.2767 67.6888 35.8235 68.1607 35.251C68.5856 34.7262 68.9397 34.1537 69.2228 33.5335C69.5061 32.8654 69.6478 32.2692 69.6478 31.7444C69.6478 31.2672 69.5061 30.8854 69.2228 30.5992C68.9397 30.3129 68.444 30.5038 67.736 31.1717C67.028 31.792 66.2726 32.5792 65.4702 33.5335C64.715 34.4876 64.007 35.4419 63.3461 36.396C62.7324 37.3503 62.3077 38.0897 62.0716 38.6145ZM57.3984 59.1537C56.9265 59.1537 56.6904 58.8674 56.6904 58.2949C56.6904 58.1517 56.6904 58.0087 56.6904 57.8654C56.7375 57.7224 56.7849 57.5792 56.832 57.4362C57.068 56.7681 57.5872 56.124 58.3897 55.5038C59.145 54.8837 59.8767 54.5735 60.5847 54.5735C60.868 54.5735 61.0095 54.6451 61.0095 54.7881C60.9623 54.979 60.868 55.1937 60.7264 55.4322C60.5847 55.7185 60.4194 56.0526 60.2306 56.4342C60.0418 56.7681 59.8767 57.0544 59.7351 57.2929C59.5934 57.5315 59.4989 57.6985 59.4518 57.7938C59.263 58.7004 58.5785 59.1537 57.3984 59.1537Z" fill="black"/>
<path d="M66.986 25.7327C66.986 25.4943 67.2456 25.1365 67.7648 24.6593C68.3312 24.1822 69.4169 23.2997 71.0217 22.0115L73.7832 19.6499C74.0191 19.5067 74.2316 19.4351 74.4203 19.4351C75.0812 19.4351 75.4116 19.7929 75.4116 20.5086C75.4116 20.8902 75.0812 21.2958 74.4203 21.7252C73.9485 22.0592 73.4764 22.3454 73.0043 22.584C72.5794 22.7749 72.0367 23.0611 71.3758 23.4427C70.3374 24.0629 69.3461 24.6593 68.402 25.2318C67.4578 25.8043 66.986 25.9713 66.986 25.7327Z" fill="black"/>
</g>
<defs>
<clipPath id="clip0_243_42">
<rect width="77" height="75" fill="white" transform="translate(0.35128 0.470459)"/>
</clipPath>
</defs>
</svg>
