<svg width="116" height="116" viewBox="0 0 116 116" fill="none" xmlns="http://www.w3.org/2000/svg">
<circle cx="57.8513" cy="57.9704" r="57.2237" fill="white"/>
<g clip-path="url(#clip0_243_47)">
<path d="M29.1224 57.1117C28.4143 57.1117 27.8479 56.9924 27.423 56.7539C27.2342 56.7062 27.1398 56.6106 27.1398 56.4676C27.1398 56.3722 27.187 56.3006 27.2814 56.253C27.423 56.2051 27.5882 56.229 27.7771 56.3244C28.0603 56.4199 28.2727 56.4676 28.4143 56.4676C29.028 56.4676 29.6652 56.229 30.326 55.7519C30.9869 55.2749 31.5533 54.6308 32.0254 53.8197C32.5446 53.0087 32.8042 52.1021 32.8042 51.1003C32.8042 50.5278 32.6862 49.8837 32.4502 49.168C32.2142 48.5001 31.8838 47.856 31.4589 47.2358C31.0341 46.5678 30.6801 45.9237 30.3968 45.3035C30.0192 44.4924 29.736 43.753 29.5472 43.0849C29.4056 42.4171 29.3348 41.773 29.3348 41.1528C29.3348 39.626 29.8068 38.4333 30.7509 37.5745C31.6949 36.668 32.8986 35.9762 34.3619 35.4991C35.8724 34.9743 37.4537 34.5926 39.1058 34.354C40.758 34.1155 42.2685 33.9008 43.6374 33.71C44.8174 33.5668 46.2335 33.376 47.8856 33.1374C49.5849 32.8512 51.355 32.5649 53.196 32.2787C55.0369 31.9447 56.7835 31.5869 58.4357 31.2052C60.135 30.8235 61.5747 30.4418 62.7547 30.0602C63.982 29.6785 64.7608 29.2968 65.0912 28.9151C65.1857 28.8197 65.28 28.772 65.3745 28.772C65.5161 28.772 65.587 28.8435 65.587 28.9867C65.6341 29.1298 65.587 29.2729 65.4453 29.4161C64.9261 29.9886 63.8403 30.5611 62.1882 31.1336C60.5362 31.7061 58.5771 32.2548 56.3115 32.7796C54.0929 33.3044 51.7799 33.8054 49.3726 34.2825C46.9651 34.7596 44.6995 35.2128 42.5753 35.6422C40.4512 36.0716 38.7283 36.4771 37.4065 36.8588C33.111 38.0516 30.9633 40.0315 30.9633 42.7987C30.9633 43.896 31.2701 44.9696 31.8838 46.0192C32.4974 47.021 33.0874 48.023 33.6539 49.0249C34.2675 50.0267 34.5743 51.0526 34.5743 52.1021C34.5743 53.5812 33.9607 54.7978 32.7334 55.7519C31.5533 56.6585 30.3496 57.1117 29.1224 57.1117ZM28.2727 70.0649C26.2902 70.0649 24.6381 69.6117 23.3164 68.7051C21.9947 67.751 21.0034 66.5344 20.3425 65.0555C19.6817 63.5764 19.3513 61.9781 19.3513 60.2605C19.3513 59.1155 19.4929 58.0181 19.7761 56.9685C19.9177 56.0144 20.2481 55.5372 20.7674 55.5372C20.909 55.5372 20.9798 55.6326 20.9798 55.8235C20.9798 56.0144 20.909 56.2767 20.7674 56.6106C20.673 56.8971 20.6494 57.0878 20.6966 57.1833C20.8382 60.6183 21.6406 63.1471 23.1039 64.7692C24.5672 66.3435 26.361 67.1308 28.4851 67.1308C31.5061 67.1308 34.6923 65.771 38.0437 63.0515C39.2711 62.0497 40.4984 60.8569 41.7256 59.4733C43.0002 58.0421 44.2511 56.5153 45.4783 54.8931C44.9119 54.9887 44.3454 55.1078 43.779 55.251C43.2598 55.3942 42.7406 55.5372 42.2213 55.6805C41.5605 55.8712 40.9468 56.0381 40.3804 56.1814C39.8139 56.3244 39.3183 56.4199 38.8934 56.4676C38.7046 56.5153 38.5158 56.5392 38.327 56.5392C38.1382 56.5392 37.9729 56.5392 37.8313 56.5392C37.3121 56.5392 37.029 56.4437 36.9817 56.253C36.9345 56.0621 36.9817 55.8712 37.1233 55.6805C37.4065 55.2987 37.8078 54.9408 38.327 54.6069C38.8934 54.2253 39.4126 54.0105 39.8847 53.9628C40.876 53.8197 41.9852 53.6528 43.2125 53.4619C44.4399 53.2233 45.7142 53.0087 47.036 52.8178C48.8297 50.3369 50.5762 47.8321 52.2755 45.3035C53.9748 42.7749 55.5326 40.5324 56.9487 38.5764C57.4679 37.9084 57.9399 37.2882 58.3649 36.7157C58.8367 36.1432 59.3088 35.5707 59.7809 34.9981C60.3946 34.2348 61.2442 33.7577 62.3298 33.5668C62.5659 33.2806 63.0378 32.8035 63.746 32.1355C64.454 31.4199 65.0912 30.9428 65.6578 30.7042C65.8466 30.6088 65.9645 30.5611 66.0117 30.5611C66.2478 30.5611 66.3658 30.6804 66.3658 30.9189C66.4129 31.1098 66.3893 31.2529 66.295 31.3483C65.8701 31.6823 65.4217 32.1832 64.9496 32.8512C64.4775 33.4714 64.0999 34.0916 63.8168 34.7119C62.5423 37.5268 61.3622 40.4131 60.2766 43.3712C59.1908 46.3292 58.1761 49.3112 57.2319 52.3169C58.2704 52.3646 59.0492 52.6508 59.5684 53.1756C60.135 53.6528 60.4181 54.1537 60.4181 54.6785C60.4181 55.3464 60.2058 55.7281 59.7809 55.8235C59.4033 55.8712 59.3088 55.7042 59.4976 55.3226C59.5921 55.1794 59.6392 54.9887 59.6392 54.7501C59.6392 54.3683 59.3796 54.0583 58.8604 53.8197C58.3412 53.5812 57.6803 53.438 56.8778 53.3903C56.5474 54.4399 56.1698 55.7758 55.7451 57.398C55.3673 59.0201 55.0606 60.5706 54.8246 62.0497C54.7773 62.479 54.7301 62.8846 54.683 63.2662C54.683 63.6003 54.683 63.9103 54.683 64.1965C54.683 65.2939 54.8481 66.0812 55.1785 66.5583C55.509 67.0353 55.9339 67.2739 56.4531 67.2739C57.114 67.2739 57.8456 67.0115 58.6479 66.4867C59.4976 65.9142 60.3238 65.2462 61.1263 64.4828C61.9286 63.7196 62.5894 63.0039 63.1086 62.336C63.2031 62.2405 63.4627 61.9065 63.8875 61.334C64.3124 60.7615 64.7845 60.1651 65.3037 59.5449C65.8229 58.8769 66.2241 58.3521 66.5074 57.9705C66.5546 57.8751 66.6726 57.8751 66.8613 57.9705C67.0975 58.0181 67.1681 58.0897 67.0738 58.1851C65.9409 59.8072 64.7373 61.4056 63.4627 62.9799C62.849 63.6956 62.0231 64.6021 60.9846 65.6994C59.9933 66.7967 58.9076 67.7749 57.7275 68.6337C56.5474 69.4447 55.391 69.8503 54.2581 69.8503C54.1164 69.8503 53.975 69.8264 53.8333 69.7787C53.6917 69.7787 53.5501 69.7547 53.4084 69.7071C52.6533 69.5164 52.1104 69.0392 51.7799 68.2758C51.4495 67.5124 51.2842 66.606 51.2842 65.5564C51.2842 65.0315 51.3315 64.459 51.4258 63.8389C51.5203 63.2185 51.6383 62.5983 51.7799 61.9781C52.1104 60.6899 52.5351 59.3064 53.0545 57.8272C53.5737 56.3006 54.1164 54.8215 54.683 53.3903C54.5413 53.3903 54.3997 53.4142 54.2581 53.4619C54.1638 53.4619 54.0456 53.4619 53.9041 53.4619C52.7241 53.5572 51.544 53.7242 50.3639 53.9628C49.1837 54.1537 48.2397 54.3206 47.5317 54.4639C45.7379 57.0878 43.8262 59.5926 41.7964 61.9781C39.7667 64.3637 37.619 66.3197 35.3532 67.8464C33.1346 69.3255 30.7745 70.0649 28.2727 70.0649ZM48.8061 52.5315C49.9862 52.4362 51.0954 52.3646 52.134 52.3169C53.2196 52.2692 54.2346 52.2453 55.1785 52.2453C55.5561 51.3865 55.8865 50.5992 56.1698 49.8837C56.5002 49.1203 56.7599 48.4522 56.9487 47.8797C57.7511 45.7806 58.4828 43.8244 59.1437 42.0115C59.8045 40.1985 60.135 39.1251 60.135 38.791C60.135 38.648 59.8517 38.624 59.2853 38.7196C58.7188 38.8149 58.0344 39.3397 57.2319 40.2939C55.9574 41.8206 54.6122 43.6814 53.196 45.876C51.7799 48.023 50.3166 50.2415 48.8061 52.5315ZM69.2686 26.1957C69.2686 26.3388 69.009 26.3149 68.4898 26.1241C68.0179 25.8855 67.4042 25.5754 66.6489 25.1937C65.9409 24.8121 65.2092 24.4781 64.454 24.1918C63.746 23.8579 63.156 23.6193 62.6839 23.4762C62.259 23.2854 61.7869 23.0468 61.2677 22.7605C60.5125 22.3789 60.135 22.021 60.135 21.6871V21.5439C60.135 20.9237 60.4181 20.5659 60.9846 20.4705C61.1263 20.4705 61.3385 20.5182 61.6218 20.6136L64.6665 22.689C66.3658 23.7863 67.5459 24.5974 68.2067 25.1222C68.8676 25.5993 69.2215 25.9571 69.2686 26.1957Z" fill="black"/>
<path d="M66.7778 48.8101C66.4002 48.8101 66.2114 48.5239 66.2114 47.9514C66.2114 47.2835 66.5653 46.7348 67.2735 46.3055C67.9815 45.8284 68.7604 45.4466 69.61 45.1603C70.5068 44.8741 71.1677 44.7071 71.5926 44.6594H71.9465C72.2298 44.6594 72.3714 44.7071 72.3714 44.8026C72.3714 44.9934 72.041 45.3512 71.3801 45.876L69.6808 47.2359C69.3976 47.4266 69.1145 47.6175 68.8312 47.8084C68.5479 47.9991 68.2883 48.166 68.0524 48.3092C67.4858 48.6432 67.0611 48.8101 66.7778 48.8101ZM46.5277 95.4705C43.6483 95.4705 41.2882 94.9457 39.4472 93.896C37.6063 92.8464 36.6858 91.3675 36.6858 89.4591C36.6858 88.2185 37.1342 86.8112 38.031 85.2367C38.9278 83.71 40.3677 82.0162 42.3501 80.1557C44.4271 78.1994 46.9761 76.5296 49.9971 75.146C53.0181 73.7625 56.1808 72.6651 59.4849 71.8541C62.7892 71.0907 65.9282 70.6614 68.902 70.5659C68.8549 68.5144 68.7132 66.5584 68.4771 64.6976C68.2883 62.7892 67.9579 60.4753 67.4858 57.7559C66.4474 59.1394 65.2673 60.6423 63.9456 62.2644C62.6712 63.8866 61.5619 65.1032 60.6178 65.9142H60.547C60.4998 65.9142 60.4527 65.8426 60.4053 65.6994C60.3582 65.5564 60.3819 65.4371 60.4762 65.3417C61.7036 64.1012 62.8837 62.7176 64.0164 61.1909C64.7244 60.2844 65.3146 59.4017 65.7865 58.543C66.3057 57.6842 66.5654 56.6585 66.5654 55.4657C66.5654 55.2271 66.5419 55.0125 66.4945 54.8216C66.4945 54.5832 66.471 54.3446 66.4239 54.106V53.9628C66.4239 53.7242 66.471 53.5335 66.5654 53.3903C66.707 53.2473 66.8486 53.128 66.9903 53.0325C67.1319 52.9371 67.297 52.7225 67.4858 52.3884C67.6748 52.0544 67.7454 51.7205 67.6983 51.3866V51.2434C67.6983 51.0526 67.7454 50.9571 67.8399 50.9571C68.1232 50.9571 68.312 51.2673 68.4063 51.8875C68.4063 51.8875 68.5244 52.46 68.7604 53.605C68.9963 54.7501 69.2796 56.253 69.61 58.1137C69.9405 59.9266 70.2472 61.9305 70.5305 64.1251C70.8138 66.3198 71.0026 68.4667 71.0969 70.5659C72.3243 70.5659 73.5278 70.7328 74.7079 71.0669C75.888 71.4009 76.6433 72.1403 76.9738 73.2853C77.0209 73.3809 77.0446 73.5001 77.0446 73.6432C77.0446 73.9771 76.9266 74.168 76.6905 74.2157C76.5017 74.2634 76.4072 74.1919 76.4072 74.001C76.5017 73.3809 76.2658 72.8798 75.6992 72.4982C75.1328 72.1642 74.4248 71.9017 73.5752 71.711C72.7255 71.5678 71.923 71.4725 71.1677 71.4248C71.3565 76.291 70.4597 80.4657 68.4771 83.9485C66.5419 87.4314 63.8041 90.1269 60.2637 92.0353C56.7235 93.9916 52.664 95.1126 48.0853 95.3989C47.8494 95.3989 47.5898 95.3989 47.3065 95.3989C47.0232 95.4466 46.7636 95.4705 46.5277 95.4705ZM45.5364 94.6118C46.3389 94.6118 47.1885 94.5401 48.0853 94.3971C50.9176 93.9676 53.5845 93.085 56.0863 91.7491C58.5409 90.4132 60.7123 88.6957 62.6004 86.5964C64.5356 84.545 66.0461 82.231 67.1319 79.6546C68.2648 77.0784 68.8549 74.335 68.902 71.4248C66.1643 71.5678 63.3555 71.9973 60.4762 72.7128C57.5968 73.4285 54.8354 74.4305 52.192 75.7185C49.5487 77.0067 47.212 78.605 45.1823 80.5134C43.0109 82.565 41.4533 84.378 40.5091 85.9523C39.518 87.5744 39.0223 89.0059 39.0223 90.2462C39.0223 91.6298 39.6123 92.7034 40.7924 93.4667C41.9725 94.23 43.5538 94.6118 45.5364 94.6118Z" fill="black"/>
<path d="M80.9299 69.9217C79.0418 69.9217 77.6966 69.4924 76.8941 68.6337C76.1388 67.7749 75.7612 66.7013 75.7612 65.4131C75.7612 64.6499 75.8792 63.8626 76.1153 63.0515C76.3512 62.2404 76.658 61.4294 77.0358 60.6183C76.7053 60.4276 76.54 60.189 76.54 59.9028C76.54 59.4733 77.0358 59.0917 78.0271 58.7576C78.4518 58.1374 78.971 57.3026 79.5847 56.2529C80.2456 55.1556 80.9536 54.0583 81.7087 52.961C82.5112 51.8637 83.3374 50.9333 84.1871 50.1699C85.0367 49.4065 85.8627 49.0249 86.6652 49.0249C87.326 49.0249 87.7508 49.2872 87.9397 49.812C88.1285 49.7644 88.3881 49.7404 88.7186 49.7404C90.0874 49.7404 90.7718 50.4562 90.7718 51.8874C90.7718 52.9847 90.3942 54.0344 89.639 55.0363C88.8837 55.9904 87.9869 56.5869 86.9485 56.8254L87.0193 57.1833C87.0193 57.1833 87.2552 57.1594 87.7273 57.1117C88.1994 57.0162 88.6004 56.9447 88.9309 56.897C89.7334 56.8492 90.6067 56.8492 91.5508 56.897C92.4948 56.9447 93.1085 57.1594 93.3916 57.541C93.486 57.6365 93.4624 57.7081 93.3209 57.7558C93.2264 57.8035 93.1319 57.8035 93.0376 57.7558C92.6601 57.5649 92.0464 57.4695 91.1967 57.4695C90.0638 57.4695 88.7186 57.6126 87.1607 57.8988C85.6502 58.1851 84.2579 58.5429 82.9833 58.9724C81.7087 59.354 80.8356 59.7119 80.3635 60.0458C79.9386 60.7138 79.5139 61.5726 79.089 62.6222C78.6642 63.624 78.4518 64.602 78.4518 65.5563C78.4518 66.4151 78.6877 67.1545 79.1598 67.7749C79.679 68.3474 80.5995 68.6337 81.9212 68.6337C83.3374 68.6337 84.6355 68.2758 85.8155 67.5601C87.0428 66.8445 88.1757 65.9619 89.2141 64.9122C90.2526 63.8149 91.173 62.7892 91.9755 61.8349C92.07 61.7395 92.4004 61.3578 92.9668 60.6899C93.5332 60.022 94.1232 59.3063 94.7369 58.5429C95.3978 57.7319 95.8699 57.1117 96.153 56.6822C96.153 56.6822 96.2003 56.7299 96.2946 56.8254C96.3891 57.0162 96.3654 57.207 96.2238 57.3979C95.6103 58.1613 94.9965 58.9724 94.3828 59.8312C93.7693 60.6899 93.1319 61.5249 92.4711 62.336C91.5271 63.5287 90.465 64.7213 89.285 65.9142C88.152 67.0592 86.9011 68.0133 85.5323 68.7767C84.1634 69.5401 82.6292 69.9217 80.9299 69.9217ZM81.0716 58.6145C81.9685 58.2806 82.6765 58.042 83.1958 57.8988C83.715 57.7558 84.1871 57.5888 84.6118 57.3979C85.0367 57.1594 85.4379 56.897 85.8155 56.6106C86.2403 56.2767 86.6888 55.8235 87.1607 55.251C87.5856 54.7262 87.9397 54.1537 88.2228 53.5335C88.5061 52.8654 88.6478 52.2692 88.6478 51.7444C88.6478 51.2672 88.5061 50.8854 88.2228 50.5992C87.9397 50.3129 87.444 50.5038 86.736 51.1717C86.028 51.792 85.2726 52.5792 84.4702 53.5335C83.715 54.4876 83.007 55.4419 82.3461 56.396C81.7324 57.3503 81.3077 58.0897 81.0716 58.6145ZM76.3984 79.1537C75.9265 79.1537 75.6904 78.8674 75.6904 78.2949C75.6904 78.1517 75.6904 78.0087 75.6904 77.8654C75.7375 77.7224 75.7849 77.5792 75.832 77.4362C76.068 76.7681 76.5872 76.124 77.3897 75.5038C78.145 74.8837 78.8767 74.5735 79.5847 74.5735C79.868 74.5735 80.0095 74.6451 80.0095 74.7881C79.9623 74.979 79.868 75.1937 79.7264 75.4322C79.5847 75.7185 79.4194 76.0526 79.2306 76.4342C79.0418 76.7681 78.8767 77.0544 78.7351 77.2929C78.5934 77.5315 78.4989 77.6985 78.4518 77.7938C78.263 78.7004 77.5785 79.1537 76.3984 79.1537Z" fill="black"/>
<path d="M85.986 45.7327C85.986 45.4943 86.2456 45.1365 86.7648 44.6593C87.3312 44.1822 88.4169 43.2997 90.0217 42.0115L92.7832 39.6499C93.0191 39.5067 93.2316 39.4351 93.4203 39.4351C94.0812 39.4351 94.4116 39.7929 94.4116 40.5086C94.4116 40.8902 94.0812 41.2958 93.4203 41.7252C92.9485 42.0592 92.4764 42.3454 92.0043 42.584C91.5794 42.7749 91.0367 43.0611 90.3758 43.4427C89.3374 44.0629 88.3461 44.6593 87.402 45.2318C86.4578 45.8043 85.986 45.9713 85.986 45.7327Z" fill="black"/>
</g>
<defs>
<clipPath id="clip0_243_47">
<rect width="77" height="75" fill="white" transform="translate(19.3513 20.4705)"/>
</clipPath>
</defs>
</svg>
